<svg width="178" height="256" viewBox="0 0 178 256" fill="none" xmlns="http://www.w3.org/2000/svg">
<path d="M154.739 44.2166C153.892 43.4597 153.16 42.6214 153.112 42.3535C152.708 40.1135 154.176 38.1524 160.739 32.161C170.485 23.2639 170.547 23.2199 172.762 23.7052C173.768 23.9256 175.04 24.7586 175.589 25.5564C177.464 28.2791 176.449 29.8849 167.937 37.6699C159.145 45.7104 157.387 46.5827 154.739 44.2166V44.2166ZM137.358 33.2155C135.617 32.7254 133.97 30.4234 134.18 28.7726C134.479 26.4186 140.812 8.48269 141.677 7.54125C143.886 5.13587 148.494 6.35667 149.06 9.49707C149.332 11.0066 146.515 19.848 144.064 26.1552C142.749 29.5414 141.539 32.1972 140.969 32.5959C139.389 33.7019 139.201 33.7342 137.358 33.2154L137.358 33.2155ZM113.734 31.3402C112.408 30.4129 112.161 29.5309 110.231 18.8201L108.155 7.29757L109.517 5.74606C111.306 3.70856 112.797 3.50291 114.936 4.99863C116.668 6.2105 116.707 6.33773 118.721 17.5129C120.609 27.9912 120.684 28.9062 119.768 30.2404C119.219 31.039 117.976 31.8246 116.97 32.0079C115.965 32.1911 114.526 31.8944 113.734 31.3402L113.734 31.3402Z" fill="white"/>
<path d="M123.863 255.58C123.274 255.34 122.556 254.701 122.269 254.159C121.932 253.524 121.746 247.869 121.746 238.268V223.363L126.62 212.452C129.3 206.451 134.244 195.682 134.244 195.682C135.128 194.178 138.143 187.163 138.143 187.163L144.78 188.67C141.322 197.096 136.243 208.267 133.275 214.95L128.614 225.39V239.709V254.027L127.322 255.052C125.914 256.17 125.478 256.236 123.863 255.58V255.58ZM31.968 254.593C31.0406 253.658 30.9868 252.944 30.9868 241.549V229.494L22.9325 219.311C18.5025 213.711 13.9495 207.749 12.8146 206.063C8.47898 199.623 4.66263 189.558 3.74402 182.141C3.58878 180.888 2.8346 170.622 2.78919 170.068L2.32311 164.381C2.32311 164.381 8.84076 161.986 8.94624 163.19L10.2661 178.255C10.3215 178.887 10.6351 180.975 11.0832 183.24C12.2182 188.978 14.4763 195.004 17.2112 199.594C18.4888 201.739 22.8436 207.697 26.8884 212.835C30.9333 217.974 35.0555 223.252 36.0489 224.566L37.8551 226.955V240.279C37.8551 252.944 37.8066 253.653 36.8739 254.593C36.3288 255.143 35.2386 255.583 34.421 255.583C33.6033 255.583 32.5131 255.143 31.968 254.593V254.593ZM95.9191 195.186C92.2275 194.449 89.0573 192.346 80.2567 184.797L71.555 177.333L69.5454 179.271C67.0569 181.67 66.4069 181.905 64.4927 181.093C62.8084 180.378 61.9632 178.116 62.796 176.552C63.0582 176.06 64.8176 174.154 66.7057 172.317C69.1127 169.975 70.512 168.976 71.3875 168.976C72.7169 168.976 73.8882 169.887 85.933 180.291C89.8455 183.67 93.9297 186.845 95.009 187.345C99.4397 189.4 105.865 187.836 108.769 183.996C112.673 178.832 111.941 172.307 106.942 167.717C101.383 162.613 76.8827 141.904 75.4965 141.138C73.6848 140.137 69.6659 140.022 67.6782 140.913C66.9471 141.241 61.4725 145.797 55.5125 151.036C43.8966 161.248 43.2646 161.611 41.0217 159.348C39.7085 158.024 39.4679 156.256 40.4307 155.008C40.768 154.571 45.7904 150.045 51.5917 144.95C63.9481 134.099 65.5746 133.13 71.4606 133.112C77.1203 133.095 78.8406 134.121 91.7522 145.206C97.7859 150.386 102.996 154.624 103.33 154.624C104.438 154.624 108.016 151.875 109.205 150.11C111.655 146.473 111.908 142.159 109.905 138.172C109.385 137.138 106.864 134.478 104.199 132.152C88.9499 118.844 76.6599 108.509 75.3112 107.859C73.3677 106.923 69.7069 106.9 67.6428 107.812C66.7745 108.195 61.3673 112.646 55.6268 117.703C49.8862 122.76 44.6414 127.036 43.9716 127.206C41.5192 127.827 39.0629 124.781 40.1244 122.435C40.3603 121.913 45.4102 117.219 51.3464 112.002C59.4373 104.892 62.9497 102.133 65.3759 100.981C67.8524 99.8046 73.4168 95.3758 89.0701 82.1222C107.406 66.597 109.658 64.5314 110.788 62.2034C112.525 58.6247 112.3 54.3291 110.197 50.9248C107.215 46.0957 100.67 44.1756 95.6939 46.6699C94.5077 47.2645 75.4474 63.0564 53.3376 81.763C10.4287 118.067 10.6021 117.903 8.314 124.293C6.7929 128.54 6.75256 133.766 8.11227 150.418C9.43267 166.587 9.38276 167.287 6.84382 168.187C5.16341 168.783 3.16189 167.935 2.59158 166.384C2.3651 165.768 1.61409 157.693 0.922707 148.438C-0.394966 130.8 -0.348446 128.108 1.36734 122.704C3.47776 116.056 7.55868 110.916 16.692 103.403L22.1062 98.9485L22.1398 77.1731C22.1752 54.1707 22.3713 51.6927 24.5602 46.5847C25.121 45.2761 31.0119 36.2043 37.6512 26.4253C50.747 7.13631 51.6288 6.13661 57.3168 4.13124C61.4556 2.67204 66.952 2.96731 71.0792 4.87058C74.8271 6.59897 78.5942 10.4571 80.4263 14.4436C81.5145 16.8114 81.7369 17.9986 81.7475 21.4972C81.7634 26.8205 80.8854 29.3759 77.1554 34.8594C73.961 39.5555 72.4978 40.5115 70.3628 39.2972C69.6608 38.8979 68.8796 37.9433 68.6269 37.1759C68.2414 36.0054 68.4129 35.3876 69.6914 33.3405C70.5296 31.9984 71.9059 29.7945 72.7499 28.4429C75.5921 23.8916 75.4984 18.8942 72.4964 14.9186C68.1724 9.19223 59.7028 8.70219 54.9742 13.9047C52.7603 16.3405 32.3644 46.8283 31.0322 49.6933L29.7604 52.4282L29.6218 72.422C29.4895 91.5012 29.5228 92.3839 30.3525 91.7229C30.8307 91.3419 35.9708 87.0474 41.7749 82.1796L52.3278 73.329L52.5731 65.7753L52.8184 58.2216L56.7431 52.3584C59.7321 47.8931 63.0464 43.3677 63.0464 43.3677L69.6915 33.3405C69.6915 33.3405 77.4495 34.525 75.9895 36.6036C74.7384 38.3847 65.6611 51.7982 62.8847 55.9127C59.4055 61.0689 59.3949 61.0949 59.5405 64.0835L59.6867 67.0817L75.1403 54.0489C91.6747 40.1046 93.345 39.0075 98.8265 38.4911C104.396 37.9664 111.176 40.6311 114.437 44.6269L115.614 46.0698L118.132 44.9508C122.271 43.1108 127.766 42.166 130.914 42.753C138.298 44.1299 143.245 49.5931 143.708 56.8823C143.829 58.7877 143.114 70.2988 142.12 82.4626L140.312 104.579L145.006 114.446C147.587 119.873 150.377 126.401 151.204 128.952C155.48 142.134 155.745 157.875 151.915 171.203C150.277 176.904 144.54 190.239 143.239 191.37C142.691 191.847 141.705 192.236 141.048 192.236C139.678 192.236 137.445 190.212 137.445 188.969C137.445 188.509 138.696 185.325 140.224 181.895C145.912 169.124 147.441 162.692 147.469 151.407C147.5 139.093 145.724 132.377 138.355 116.942C134.661 109.204 133.779 106.917 133.616 104.648C133.506 103.115 134.234 92.0014 135.233 79.9516C136.232 67.9017 136.907 57.2759 136.733 56.3384C136.365 54.3602 134.03 51.482 131.885 50.363C129.786 49.2683 125.07 49.7267 121.509 51.3713L118.709 52.6642L119.038 55.0782C119.445 58.0572 118.724 62.1949 117.246 65.3693C116.109 67.813 113.068 71.213 108.86 74.7472L106.521 76.7114L102.61 96.7381C100.46 107.753 98.6973 117.025 98.6942 117.343C98.6898 117.661 101.614 120.418 105.189 123.47C113.35 130.436 114.653 131.852 116.482 135.744C120.144 143.531 117.716 153.585 110.986 158.503L109.067 159.905L111.984 162.677C114.001 164.594 115.388 166.487 116.484 168.821C117.933 171.907 118.065 172.592 118.038 176.895C118.002 182.757 116.691 186.024 112.816 189.914C108.157 194.59 102.217 196.444 95.9193 195.186L95.9191 195.186ZM95.1085 98.4176C96.5297 91.0881 97.6404 84.9235 97.5767 84.7185C97.471 84.3787 81.8659 97.2467 79.1222 99.9361L77.9532 101.082L79.3675 101.827C80.1454 102.236 83.2103 104.695 86.1783 107.291C89.1464 109.888 91.7885 111.951 92.0497 111.878C92.3109 111.804 93.6873 105.747 95.1085 98.4176V98.4176Z" fill="white"/>
</svg>
